G04 EAGLE Gerber RS-274X export*
G75*
%MOMM*%
%FSLAX34Y34*%
%LPD*%
%INBottom Copper*%
%IPPOS*%
%AMOC8*
5,1,8,0,0,1.08239X$1,22.5*%
G01*
%ADD10R,1.000000X1.100000*%
%ADD11R,1.100000X1.000000*%
%ADD12C,1.270000*%
%ADD13C,0.152400*%
%ADD14C,0.756400*%
%ADD15C,0.254000*%

G36*
X1059270Y395494D02*
X1059270Y395494D01*
X1059361Y395501D01*
X1059391Y395513D01*
X1059423Y395519D01*
X1059503Y395561D01*
X1059587Y395597D01*
X1059619Y395623D01*
X1059640Y395634D01*
X1059662Y395657D01*
X1059718Y395702D01*
X1060988Y396972D01*
X1061041Y397046D01*
X1061101Y397115D01*
X1061113Y397145D01*
X1061132Y397171D01*
X1061159Y397258D01*
X1061193Y397343D01*
X1061197Y397384D01*
X1061204Y397407D01*
X1061203Y397439D01*
X1061211Y397510D01*
X1061211Y436380D01*
X1061197Y436470D01*
X1061189Y436561D01*
X1061177Y436590D01*
X1061172Y436622D01*
X1061129Y436703D01*
X1061093Y436787D01*
X1061067Y436819D01*
X1061056Y436840D01*
X1061033Y436862D01*
X1060988Y436918D01*
X1052868Y445038D01*
X1052794Y445091D01*
X1052724Y445151D01*
X1052694Y445163D01*
X1052668Y445182D01*
X1052581Y445209D01*
X1052496Y445243D01*
X1052455Y445247D01*
X1052433Y445254D01*
X1052401Y445253D01*
X1052330Y445261D01*
X1012690Y445261D01*
X1012600Y445247D01*
X1012509Y445239D01*
X1012480Y445227D01*
X1012448Y445222D01*
X1012367Y445179D01*
X1012283Y445143D01*
X1012251Y445117D01*
X1012230Y445106D01*
X1012208Y445083D01*
X1012152Y445038D01*
X1011652Y444538D01*
X1011598Y444464D01*
X1011539Y444394D01*
X1011527Y444364D01*
X1011508Y444338D01*
X1011481Y444251D01*
X1011447Y444166D01*
X1011443Y444125D01*
X1011436Y444103D01*
X1011437Y444071D01*
X1011429Y444000D01*
X1011429Y416560D01*
X1011444Y416470D01*
X1011451Y416379D01*
X1011463Y416349D01*
X1011469Y416317D01*
X1011511Y416237D01*
X1011547Y416153D01*
X1011573Y416121D01*
X1011584Y416100D01*
X1011607Y416078D01*
X1011652Y416022D01*
X1025399Y402275D01*
X1025399Y396240D01*
X1025402Y396220D01*
X1025400Y396201D01*
X1025422Y396099D01*
X1025439Y395997D01*
X1025448Y395980D01*
X1025452Y395960D01*
X1025505Y395871D01*
X1025554Y395780D01*
X1025568Y395766D01*
X1025578Y395749D01*
X1025657Y395682D01*
X1025732Y395611D01*
X1025750Y395602D01*
X1025765Y395589D01*
X1025861Y395550D01*
X1025955Y395507D01*
X1025975Y395505D01*
X1025993Y395497D01*
X1026160Y395479D01*
X1059180Y395479D01*
X1059270Y395494D01*
G37*
D10*
X1204840Y445770D03*
X1187840Y445770D03*
D11*
X1204070Y394970D03*
X1186070Y394970D03*
X1203570Y375920D03*
X1186570Y375920D03*
D12*
X1129030Y420370D03*
X1128776Y400050D03*
X1129030Y444500D03*
X1129030Y373380D03*
D10*
X1257300Y400440D03*
X1257300Y417440D03*
D13*
X1166159Y471424D02*
X1026160Y471424D01*
X986028Y431292D01*
X986028Y396748D02*
X994918Y387858D01*
X986028Y396748D02*
X986028Y431292D01*
X1166159Y471424D02*
X1187840Y445770D01*
D14*
X994918Y387858D03*
D13*
X1203570Y375920D02*
X1203960Y376428D01*
X1203960Y394716D02*
X1204070Y394970D01*
D14*
X982980Y370332D03*
X976884Y443484D03*
X1076960Y374142D03*
D15*
X1204070Y376420D02*
X1204070Y394970D01*
X1204070Y376420D02*
X1203570Y375920D01*
D14*
X1203960Y375920D03*
D15*
X1101852Y355600D02*
X1083310Y374142D01*
X1076960Y374142D01*
X1129030Y373380D02*
X1129030Y363220D01*
X1121410Y355600D01*
X1203570Y375920D02*
X1203960Y375920D01*
X1121410Y355600D02*
X1101852Y355600D01*
X986790Y366522D02*
X982980Y370332D01*
X986790Y366522D02*
X1069340Y366522D01*
X1076960Y374142D01*
X982980Y370332D02*
X976884Y376428D01*
X976884Y443484D01*
D14*
X1018540Y422910D03*
X1018540Y438150D03*
X1037590Y422910D03*
X1055370Y422910D03*
X1028700Y411480D03*
X1046480Y411480D03*
X1036320Y401320D03*
X1055370Y401320D03*
X1052830Y438150D03*
X1036320Y438150D03*
D13*
X1250070Y400440D02*
X1257300Y400440D01*
D14*
X1250070Y400440D03*
D13*
X1129030Y444500D02*
X1127760Y443484D01*
X1200912Y445008D02*
X1203960Y445008D01*
X1204840Y445770D01*
X1129284Y443484D02*
X1129105Y444201D01*
X1129030Y444500D01*
D14*
X992124Y414528D03*
X1022604Y376428D03*
X1072896Y452628D03*
X990600Y445008D03*
X1204468Y445262D03*
D15*
X1204840Y445770D02*
X1204840Y442840D01*
X1193800Y431800D01*
X1141506Y431800D01*
X1129105Y444201D01*
X1092200Y452628D02*
X1072896Y452628D01*
X1092200Y452628D02*
X1093470Y452628D01*
X1120902Y452628D02*
X1129030Y444500D01*
X1093470Y420370D02*
X1080770Y407670D01*
X1080770Y406400D01*
D14*
X1080770Y406400D03*
D15*
X1018032Y472440D02*
X990600Y445008D01*
D14*
X1018540Y472440D03*
D15*
X1018032Y472440D01*
X990600Y445008D02*
X981710Y436118D01*
X981710Y388620D01*
X993902Y376428D01*
X1022604Y376428D01*
X1204840Y445634D02*
X1204840Y445770D01*
X1204840Y445634D02*
X1204468Y445262D01*
X1009142Y414528D02*
X992124Y414528D01*
X1009142Y414528D02*
X1022604Y401066D01*
X1022604Y376428D01*
X1093470Y420370D02*
X1093470Y452628D01*
D13*
X1248800Y417440D02*
X1257300Y417440D01*
D14*
X1248800Y417440D03*
D15*
X1120902Y452628D02*
X1093470Y452628D01*
D13*
X982980Y454914D02*
X979170Y454914D01*
X970788Y446532D01*
X970788Y373380D01*
X983742Y360426D01*
X1080770Y360426D01*
D14*
X982980Y454914D03*
X1080770Y360426D03*
D13*
X1047496Y453644D02*
X1017524Y453644D01*
X992124Y428244D01*
X1047496Y453644D02*
X1080516Y420624D01*
D14*
X992124Y428244D03*
X1080516Y420624D03*
D13*
X1184656Y413766D02*
X1184656Y406400D01*
X1184656Y406146D01*
D14*
X1184656Y413766D03*
D13*
X1184656Y406146D02*
X1184656Y396384D01*
X1186070Y394970D01*
X1169924Y392430D02*
X1186257Y376097D01*
X1186570Y375920D01*
D14*
X1169924Y392430D03*
D13*
X1127760Y411480D02*
X1127760Y419100D01*
X1127760Y411480D02*
X1117600Y401320D01*
X1117600Y368554D02*
X1111250Y362204D01*
X1117600Y368554D02*
X1117600Y401320D01*
X1127760Y419100D02*
X1129030Y420370D01*
D14*
X1111250Y362204D03*
D13*
X1129284Y388366D02*
X1129284Y399288D01*
X1128776Y400050D01*
D14*
X1129284Y388366D03*
M02*
