G04 EAGLE Gerber RS-274X export*
G75*
%MOMM*%
%FSLAX34Y34*%
%LPD*%
%INSoldermask Top*%
%IPPOS*%
%AMOC8*
5,1,8,0,0,1.08239X$1,22.5*%
G01*
%ADD10R,1.303200X1.203200*%
%ADD11R,1.203200X1.303200*%
%ADD12C,0.686816*%
%ADD13C,0.276759*%
%ADD14R,1.503200X1.403200*%
%ADD15C,1.473200*%
%ADD16R,0.553200X1.753200*%
%ADD17R,3.099250X1.596491*%
%ADD18R,3.098481X1.609400*%
%ADD19R,2.203200X1.403200*%
%ADD20C,1.303200*%
%ADD21C,1.203200*%
%ADD22C,0.959600*%


D10*
X984640Y467360D03*
X1001640Y467360D03*
D11*
X966470Y466970D03*
X966470Y449970D03*
D12*
X1013592Y397388D02*
X1059556Y397388D01*
X1013592Y397388D02*
X1013592Y443352D01*
X1059556Y443352D01*
X1059556Y397388D01*
X1059556Y403913D02*
X1013592Y403913D01*
X1013592Y410438D02*
X1059556Y410438D01*
X1059556Y416963D02*
X1013592Y416963D01*
X1013592Y423488D02*
X1059556Y423488D01*
X1059556Y430013D02*
X1013592Y430013D01*
X1013592Y436538D02*
X1059556Y436538D01*
X1059556Y443063D02*
X1013592Y443063D01*
D13*
X1007706Y446502D02*
X998442Y446502D01*
X1007706Y446502D02*
X1007706Y444238D01*
X998442Y444238D01*
X998442Y446502D01*
X998442Y441502D02*
X1007706Y441502D01*
X1007706Y439238D01*
X998442Y439238D01*
X998442Y441502D01*
X998442Y436502D02*
X1007706Y436502D01*
X1007706Y434238D01*
X998442Y434238D01*
X998442Y436502D01*
X998442Y431502D02*
X1007706Y431502D01*
X1007706Y429238D01*
X998442Y429238D01*
X998442Y431502D01*
X998442Y426502D02*
X1007706Y426502D01*
X1007706Y424238D01*
X998442Y424238D01*
X998442Y426502D01*
X998442Y421502D02*
X1007706Y421502D01*
X1007706Y419238D01*
X998442Y419238D01*
X998442Y421502D01*
X998442Y416502D02*
X1007706Y416502D01*
X1007706Y414238D01*
X998442Y414238D01*
X998442Y416502D01*
X998442Y411502D02*
X1007706Y411502D01*
X1007706Y409238D01*
X998442Y409238D01*
X998442Y411502D01*
X998442Y406502D02*
X1007706Y406502D01*
X1007706Y404238D01*
X998442Y404238D01*
X998442Y406502D01*
X998442Y401502D02*
X1007706Y401502D01*
X1007706Y399238D01*
X998442Y399238D01*
X998442Y401502D01*
X998442Y396502D02*
X1007706Y396502D01*
X1007706Y394238D01*
X998442Y394238D01*
X998442Y396502D01*
X1010442Y391502D02*
X1010442Y382238D01*
X1010442Y391502D02*
X1012706Y391502D01*
X1012706Y382238D01*
X1010442Y382238D01*
X1010442Y384868D02*
X1012706Y384868D01*
X1012706Y387498D02*
X1010442Y387498D01*
X1010442Y390128D02*
X1012706Y390128D01*
X1015442Y391502D02*
X1015442Y382238D01*
X1015442Y391502D02*
X1017706Y391502D01*
X1017706Y382238D01*
X1015442Y382238D01*
X1015442Y384868D02*
X1017706Y384868D01*
X1017706Y387498D02*
X1015442Y387498D01*
X1015442Y390128D02*
X1017706Y390128D01*
X1020442Y391502D02*
X1020442Y382238D01*
X1020442Y391502D02*
X1022706Y391502D01*
X1022706Y382238D01*
X1020442Y382238D01*
X1020442Y384868D02*
X1022706Y384868D01*
X1022706Y387498D02*
X1020442Y387498D01*
X1020442Y390128D02*
X1022706Y390128D01*
X1025442Y391502D02*
X1025442Y382238D01*
X1025442Y391502D02*
X1027706Y391502D01*
X1027706Y382238D01*
X1025442Y382238D01*
X1025442Y384868D02*
X1027706Y384868D01*
X1027706Y387498D02*
X1025442Y387498D01*
X1025442Y390128D02*
X1027706Y390128D01*
X1030442Y391502D02*
X1030442Y382238D01*
X1030442Y391502D02*
X1032706Y391502D01*
X1032706Y382238D01*
X1030442Y382238D01*
X1030442Y384868D02*
X1032706Y384868D01*
X1032706Y387498D02*
X1030442Y387498D01*
X1030442Y390128D02*
X1032706Y390128D01*
X1035442Y391502D02*
X1035442Y382238D01*
X1035442Y391502D02*
X1037706Y391502D01*
X1037706Y382238D01*
X1035442Y382238D01*
X1035442Y384868D02*
X1037706Y384868D01*
X1037706Y387498D02*
X1035442Y387498D01*
X1035442Y390128D02*
X1037706Y390128D01*
X1040442Y391502D02*
X1040442Y382238D01*
X1040442Y391502D02*
X1042706Y391502D01*
X1042706Y382238D01*
X1040442Y382238D01*
X1040442Y384868D02*
X1042706Y384868D01*
X1042706Y387498D02*
X1040442Y387498D01*
X1040442Y390128D02*
X1042706Y390128D01*
X1045442Y391502D02*
X1045442Y382238D01*
X1045442Y391502D02*
X1047706Y391502D01*
X1047706Y382238D01*
X1045442Y382238D01*
X1045442Y384868D02*
X1047706Y384868D01*
X1047706Y387498D02*
X1045442Y387498D01*
X1045442Y390128D02*
X1047706Y390128D01*
X1050442Y391502D02*
X1050442Y382238D01*
X1050442Y391502D02*
X1052706Y391502D01*
X1052706Y382238D01*
X1050442Y382238D01*
X1050442Y384868D02*
X1052706Y384868D01*
X1052706Y387498D02*
X1050442Y387498D01*
X1050442Y390128D02*
X1052706Y390128D01*
X1055442Y391502D02*
X1055442Y382238D01*
X1055442Y391502D02*
X1057706Y391502D01*
X1057706Y382238D01*
X1055442Y382238D01*
X1055442Y384868D02*
X1057706Y384868D01*
X1057706Y387498D02*
X1055442Y387498D01*
X1055442Y390128D02*
X1057706Y390128D01*
X1060442Y391502D02*
X1060442Y382238D01*
X1060442Y391502D02*
X1062706Y391502D01*
X1062706Y382238D01*
X1060442Y382238D01*
X1060442Y384868D02*
X1062706Y384868D01*
X1062706Y387498D02*
X1060442Y387498D01*
X1060442Y390128D02*
X1062706Y390128D01*
X1065442Y394238D02*
X1074706Y394238D01*
X1065442Y394238D02*
X1065442Y396502D01*
X1074706Y396502D01*
X1074706Y394238D01*
X1074706Y399238D02*
X1065442Y399238D01*
X1065442Y401502D01*
X1074706Y401502D01*
X1074706Y399238D01*
X1074706Y404238D02*
X1065442Y404238D01*
X1065442Y406502D01*
X1074706Y406502D01*
X1074706Y404238D01*
X1074706Y409238D02*
X1065442Y409238D01*
X1065442Y411502D01*
X1074706Y411502D01*
X1074706Y409238D01*
X1074706Y414238D02*
X1065442Y414238D01*
X1065442Y416502D01*
X1074706Y416502D01*
X1074706Y414238D01*
X1074706Y419238D02*
X1065442Y419238D01*
X1065442Y421502D01*
X1074706Y421502D01*
X1074706Y419238D01*
X1074706Y424238D02*
X1065442Y424238D01*
X1065442Y426502D01*
X1074706Y426502D01*
X1074706Y424238D01*
X1074706Y429238D02*
X1065442Y429238D01*
X1065442Y431502D01*
X1074706Y431502D01*
X1074706Y429238D01*
X1074706Y434238D02*
X1065442Y434238D01*
X1065442Y436502D01*
X1074706Y436502D01*
X1074706Y434238D01*
X1074706Y439238D02*
X1065442Y439238D01*
X1065442Y441502D01*
X1074706Y441502D01*
X1074706Y439238D01*
X1074706Y444238D02*
X1065442Y444238D01*
X1065442Y446502D01*
X1074706Y446502D01*
X1074706Y444238D01*
X1062706Y449238D02*
X1062706Y458502D01*
X1062706Y449238D02*
X1060442Y449238D01*
X1060442Y458502D01*
X1062706Y458502D01*
X1062706Y451868D02*
X1060442Y451868D01*
X1060442Y454498D02*
X1062706Y454498D01*
X1062706Y457128D02*
X1060442Y457128D01*
X1057706Y458502D02*
X1057706Y449238D01*
X1055442Y449238D01*
X1055442Y458502D01*
X1057706Y458502D01*
X1057706Y451868D02*
X1055442Y451868D01*
X1055442Y454498D02*
X1057706Y454498D01*
X1057706Y457128D02*
X1055442Y457128D01*
X1052706Y458502D02*
X1052706Y449238D01*
X1050442Y449238D01*
X1050442Y458502D01*
X1052706Y458502D01*
X1052706Y451868D02*
X1050442Y451868D01*
X1050442Y454498D02*
X1052706Y454498D01*
X1052706Y457128D02*
X1050442Y457128D01*
X1047706Y458502D02*
X1047706Y449238D01*
X1045442Y449238D01*
X1045442Y458502D01*
X1047706Y458502D01*
X1047706Y451868D02*
X1045442Y451868D01*
X1045442Y454498D02*
X1047706Y454498D01*
X1047706Y457128D02*
X1045442Y457128D01*
X1042706Y458502D02*
X1042706Y449238D01*
X1040442Y449238D01*
X1040442Y458502D01*
X1042706Y458502D01*
X1042706Y451868D02*
X1040442Y451868D01*
X1040442Y454498D02*
X1042706Y454498D01*
X1042706Y457128D02*
X1040442Y457128D01*
X1037706Y458502D02*
X1037706Y449238D01*
X1035442Y449238D01*
X1035442Y458502D01*
X1037706Y458502D01*
X1037706Y451868D02*
X1035442Y451868D01*
X1035442Y454498D02*
X1037706Y454498D01*
X1037706Y457128D02*
X1035442Y457128D01*
X1032706Y458502D02*
X1032706Y449238D01*
X1030442Y449238D01*
X1030442Y458502D01*
X1032706Y458502D01*
X1032706Y451868D02*
X1030442Y451868D01*
X1030442Y454498D02*
X1032706Y454498D01*
X1032706Y457128D02*
X1030442Y457128D01*
X1027706Y458502D02*
X1027706Y449238D01*
X1025442Y449238D01*
X1025442Y458502D01*
X1027706Y458502D01*
X1027706Y451868D02*
X1025442Y451868D01*
X1025442Y454498D02*
X1027706Y454498D01*
X1027706Y457128D02*
X1025442Y457128D01*
X1022706Y458502D02*
X1022706Y449238D01*
X1020442Y449238D01*
X1020442Y458502D01*
X1022706Y458502D01*
X1022706Y451868D02*
X1020442Y451868D01*
X1020442Y454498D02*
X1022706Y454498D01*
X1022706Y457128D02*
X1020442Y457128D01*
X1017706Y458502D02*
X1017706Y449238D01*
X1015442Y449238D01*
X1015442Y458502D01*
X1017706Y458502D01*
X1017706Y451868D02*
X1015442Y451868D01*
X1015442Y454498D02*
X1017706Y454498D01*
X1017706Y457128D02*
X1015442Y457128D01*
X1012706Y458502D02*
X1012706Y449238D01*
X1010442Y449238D01*
X1010442Y458502D01*
X1012706Y458502D01*
X1012706Y451868D02*
X1010442Y451868D01*
X1010442Y454498D02*
X1012706Y454498D01*
X1012706Y457128D02*
X1010442Y457128D01*
D14*
X1040390Y369204D03*
X1009390Y369204D03*
X1009390Y355204D03*
X1040390Y355204D03*
D15*
X965200Y370840D03*
D11*
X1108066Y397510D03*
X1091066Y397510D03*
X1091320Y381000D03*
X1108320Y381000D03*
D16*
X1134241Y368020D03*
X1140591Y368020D03*
X1146941Y368020D03*
X1153291Y368020D03*
X1153291Y422020D03*
X1146941Y422020D03*
X1140591Y422020D03*
X1134241Y422020D03*
X1121541Y368020D03*
X1127891Y368020D03*
X1165991Y422020D03*
X1159641Y422020D03*
X1159641Y368020D03*
X1165991Y368020D03*
X1127891Y422020D03*
X1121541Y422020D03*
D14*
X1158246Y461660D03*
X1127246Y461660D03*
X1127246Y447660D03*
X1158246Y447660D03*
D17*
X1256604Y352982D03*
D18*
X1256608Y467047D03*
D19*
X1230600Y400000D03*
X1230600Y420000D03*
X1230600Y375000D03*
X1230600Y445000D03*
D20*
X1256600Y432500D03*
X1256600Y387500D03*
D21*
X1256600Y467000D03*
X1256600Y353000D03*
D10*
X1059180Y370450D03*
X1059180Y353450D03*
X990600Y353450D03*
X990600Y370450D03*
D15*
X965200Y433070D03*
X965200Y412750D03*
X965200Y391160D03*
D22*
X994918Y387858D03*
X982980Y370332D03*
X976884Y443484D03*
X1076960Y374142D03*
X1203960Y375920D03*
X1018540Y422910D03*
X1018540Y438150D03*
X1037590Y422910D03*
X1055370Y422910D03*
X1028700Y411480D03*
X1046480Y411480D03*
X1036320Y401320D03*
X1055370Y401320D03*
X1052830Y438150D03*
X1036320Y438150D03*
X1250070Y400440D03*
X992124Y414528D03*
X1022604Y376428D03*
X1072896Y452628D03*
X990600Y445008D03*
X1204468Y445262D03*
X1080770Y406400D03*
X1018540Y472440D03*
X1248800Y417440D03*
X982980Y454914D03*
X1080770Y360426D03*
X992124Y428244D03*
X1080516Y420624D03*
X1184656Y413766D03*
X1169924Y392430D03*
X1111250Y362204D03*
X1129284Y388366D03*
M02*
