G04 EAGLE Gerber RS-274X export*
G75*
%MOMM*%
%FSLAX34Y34*%
%LPD*%
%INSoldermask Bottom*%
%IPPOS*%
%AMOC8*
5,1,8,0,0,1.08239X$1,22.5*%
G01*
%ADD10R,1.203200X1.303200*%
%ADD11R,1.303200X1.203200*%
%ADD12C,1.303200*%
%ADD13C,1.203200*%
%ADD14C,1.473200*%
%ADD15C,0.959600*%


D10*
X1204840Y445770D03*
X1187840Y445770D03*
D11*
X1204070Y394970D03*
X1186070Y394970D03*
D12*
X1256600Y432500D03*
X1256600Y387500D03*
D13*
X1256600Y467000D03*
X1256600Y353000D03*
D11*
X1203570Y375920D03*
X1186570Y375920D03*
D14*
X1129030Y420370D03*
X1128776Y400050D03*
X1129030Y444500D03*
X1129030Y373380D03*
D10*
X1257300Y400440D03*
X1257300Y417440D03*
D15*
X994918Y387858D03*
X982980Y370332D03*
X976884Y443484D03*
X1076960Y374142D03*
X1203960Y375920D03*
X1018540Y422910D03*
X1018540Y438150D03*
X1037590Y422910D03*
X1055370Y422910D03*
X1028700Y411480D03*
X1046480Y411480D03*
X1036320Y401320D03*
X1055370Y401320D03*
X1052830Y438150D03*
X1036320Y438150D03*
X1250070Y400440D03*
X992124Y414528D03*
X1022604Y376428D03*
X1072896Y452628D03*
X990600Y445008D03*
X1204468Y445262D03*
X1080770Y406400D03*
X1018540Y472440D03*
X1248800Y417440D03*
X982980Y454914D03*
X1080770Y360426D03*
X992124Y428244D03*
X1080516Y420624D03*
X1184656Y413766D03*
X1169924Y392430D03*
X1111250Y362204D03*
X1129284Y388366D03*
M02*
