M48
;GenerationSoftware,Autodesk,EAGLE,9.6.2*%
;CreationDate,2020-07-22T10:43:11Z*%
FMAT,2
ICI,OFF
METRIC,TZ,000.000
T3C0.350
T2C1.000
T1C1.100
%
G90
M71
T1
X125660Y43250
X125660Y38750
T2
X125660Y35300
X125660Y46700
T3
X120396Y37592
X101854Y42291
X101854Y43815
X103759Y42291
X105537Y42291
X102870Y41148
X104648Y41148
X103632Y40132
X105537Y40132
X105283Y43815
X103632Y43815
X125007Y40044
X99212Y41453
X102260Y37643
X99492Y38786
X99060Y44501
X120447Y44526
X108077Y40640
X101854Y47244
X124880Y41744
X98298Y45491
X108077Y36043
X99212Y42824
X108052Y42062
X118466Y41377
X116992Y39243
X111125Y36220
X112928Y38837
X98298Y37033
X97688Y44348
X107696Y37414
X107290Y45263
M30